<?xml version="1.0" standalone="no"?>
<svg version="1.0" xmlns="http://www.w3.org/2000/svg"
 width="102.000000pt" height="132.000000pt" viewBox="0 0 102.000000 132.000000"
 preserveAspectRatio="xMidYMid meet">

<g transform="translate(0.000000,132.000000) scale(0.100000,-0.100000)"
fill="#000000" stroke="none">
<path d="M495 1081 c-10 -9 -45 -28 -240 -131 -55 -29 -108 -58 -117 -64 -17
-10 -18 -36 -18 -318 0 -230 3 -308 12 -308 6 0 94 -40 195 -90 100 -50 187
-90 192 -90 5 0 98 43 205 96 l196 95 0 73 0 73 -102 51 c-57 28 -157 76 -223
107 -262 124 -271 130 -262 167 5 17 31 35 100 70 52 26 98 43 103 39 5 -5 41
-25 79 -45 39 -20 76 -44 83 -53 6 -10 12 -45 12 -79 0 -66 17 -98 49 -92 13
3 16 20 19 98 2 66 -1 100 -10 112 -7 8 -66 43 -130 77 l-118 62 -122 -63
c-68 -35 -125 -64 -127 -65 -7 -4 -13 -93 -7 -117 6 -25 17 -31 432 -232 218
-105 218 -113 -12 -225 l-164 -80 -158 76 c-86 42 -163 83 -170 92 -9 12 -12
82 -12 263 0 223 2 248 18 262 14 13 168 97 285 156 37 18 55 13 178 -56 57
-31 121 -66 141 -75 21 -10 42 -26 48 -37 5 -10 10 -84 10 -163 l0 -145 30
-11 30 -10 0 187 0 188 -27 16 c-16 8 -73 39 -128 68 -150 79 -209 111 -219
121 -13 12 -39 11 -51 0z"/>
<path d="M270 467 l0 -112 120 -58 c122 -58 146 -64 178 -48 9 5 52 27 94 48
43 21 78 44 78 51 0 7 -11 18 -25 24 -21 9 -33 8 -68 -9 -115 -56 -115 -56
-150 -42 -17 7 -59 27 -92 44 l-60 30 -5 78 c-5 78 -5 79 -37 92 l-33 14 0
-112z"/>
</g>
</svg>
