<?xml version="1.0" standalone="no"?>

<svg version="1.0" xmlns="http://www.w3.org/2000/svg"
 width="512.000000pt" height="512.000000pt" viewBox="0 0 512.000000 512.000000"
 preserveAspectRatio="xMidYMid meet">

<g transform="translate(0.000000,512.000000) scale(0.100000,-0.100000)"
fill="#000000" stroke="none">
<path d="M4325 5109 c-347 -46 -839 -256 -1330 -568 -289 -183 -571 -395 -845
-636 -163 -143 -166 -145 -216 -145 -23 0 -118 18 -211 41 -140 34 -180 40
-243 37 -150 -8 -118 18 -832 -696 -429 -429 -639 -646 -643 -664 -11 -45 2
-77 38 -93 17 -8 237 -47 487 -86 507 -79 545 -81 646 -35 32 15 73 38 90 51
18 14 43 25 56 25 17 0 150 -127 526 -503 276 -276 502 -510 502 -519 0 -9
-11 -29 -24 -45 -37 -44 -73 -124 -87 -191 -12 -59 -10 -81 60 -528 40 -256
77 -481 82 -500 11 -39 34 -54 81 -54 30 0 85 53 676 643 575 573 647 648 672
702 49 105 48 144 -5 368 -27 115 -44 206 -40 218 4 12 57 78 119 148 624 705
1067 1486 1201 2116 25 113 28 153 29 305 0 164 -1 180 -27 257 -64 191 -193
308 -387 349 -70 15 -276 17 -375 3z m-300 -771 c340 -111 471 -527 256 -811
-154 -204 -421 -269 -648 -157 -185 91 -293 265 -293 470 0 148 49 266 154
370 140 140 343 189 531 128z"/>
<path d="M1179 1873 c-207 -218 -443 -624 -588 -1014 -70 -191 -103 -371 -72
-402 15 -15 44 -4 236 86 88 41 259 114 380 161 353 139 436 181 575 289 88
69 223 197 233 220 4 11 1 32 -8 51 -9 18 -156 173 -328 344 -291 289 -316
312 -348 312 -28 0 -43 -9 -80 -47z"/>
</g>
</svg>
